<svg xmlns="http://www.w3.org/2000/svg" viewBox="0 0 84 84" shape-rendering="crispEdges">
<rect width="84" height="84" fill="#5e4e19"/>
<rect x="6" y="6" width="72" height="72" rx="8" fill="#10131a"/>
<rect x="16" y="18" width="52" height="50" fill="#e1b640"/>
<rect x="26" y="14" width="32" height="28" fill="#f0cfaa"/>
<rect x="22" y="18" width="8" height="8" fill="#1b1b1b"/>
<rect x="54" y="18" width="8" height="8" fill="#1b1b1b"/>
<rect x="30" y="22" width="24" height="8" fill="#f0cfaa"/>
<rect x="30" y="26" width="6" height="6" fill="#1b1b1b"/>
<rect x="48" y="26" width="6" height="6" fill="#1b1b1b"/>
<rect x="38" y="34" width="8" height="4" fill="#1b1b1b"/>
<rect x="22" y="42" width="40" height="8" fill="#e1b640"/>
<rect x="18" y="50" width="48" height="14" fill="#e1b640"/>
<rect x="28" y="48" width="28" height="4" fill="#7ae0ff"/>
<rect x="20" y="58" width="44" height="4" fill="#0b0e13" opacity="0.35"/>
<rect x="14" y="66" width="56" height="6" fill="#0d1016"/>
<text x="42" y="74" fill="#7ae0ff" font-size="8" font-family="monospace" text-anchor="middle">IC</text>
</svg>